ply
format ascii 1.0
element vertex 617
property float x
property float y
property float z
element face 1142
property list uchar int vertex_indices
end_header
1.21256 0.172864 -2.14666
1.16309 -0.140435 -2.21668
1.24622 1.30364 -2.15105
1.21564 1.33335 -2.14637
1.24638 1.60155 -2.7593
1.24273 1.62776 -2.81933
1.24733 1.61498 -3.01855
1.22236 1.6309 -2.9764
1.23923 1.60921 -3.12307
1.22611 1.63013 -3.15323
0.997122 1.63464 -3.57846
0.533702 0.21584 -2.14562
0.588174 -0.140419 -3.32345
0.638388 0.392177 -4.15704
-0.0158741 -0.139831 -2.24271
-0.18779 -0.140425 -2.97445
-0.278695 -0.140304 -3.05929
-0.422837 -0.0885331 -4.11853
-0.424274 1.3964 -2.46388
1.24145 -0.128599 -2.29718
1.24715 -0.0779701 -2.65544
1.24441 1.39454 -2.14852
1.24165 1.63422 -2.56108
1.23533 1.01709 -4.15271
1.22038 1.01848 -4.15599
1.20385 0.815124 -4.15696
1.17404 1.6337 -3.15204
1.16076 1.63163 -3.39353
-0.0197176 -0.140454 -3.15201
-0.300153 -0.140117 -4.12645
0.202606 -0.139674 -2.21867
0.224303 -0.123249 -2.14656
-0.42184 0.652871 -4.15631
-0.422406 -0.12424 -3.39516
-0.423355 -0.117335 -3.37882
-0.0988759 1.63399 -2.19307
-0.423961 1.62932 -2.23563
-0.385331 1.6264 -2.14833
-0.386421 1.55964 -2.1474
-0.396397 1.54417 -2.14752
-0.42331 1.59943 -2.17242
-0.423442 1.25304 -2.19173
-0.41959 1.22756 -2.14622
-0.422518 1.15073 -2.15071
1.23439 0.184578 -2.14904
1.2462 1.17811 -2.14777
1.24017 1.30869 -2.1503
1.24733 1.5059 -2.53757
1.22205 1.63177 -3.1381
1.22895 0.892089 -4.14638
1.18749 0.819303 -4.157
0.509564 -0.14046 -3.01713
0.315311 -0.139656 -2.26147
1.24538 -0.126754 -2.37336
1.23441 -0.136999 -2.70516
1.24689 -0.0996561 -2.92103
1.24766 1.40608 -2.16203
1.24711 1.59352 -2.39221
1.24032 1.6292 -2.7296
1.24548 1.27345 -4.13933
-0.053761 -0.104955 -4.15685
0.138936 1.63437 -2.24805
0.199693 -0.071242 -2.14569
-0.143074 1.56044 -2.14582
-0.422871 1.4168 -2.21937
-0.420776 1.41627 -2.15222
-0.424178 0.0833717 -2.20165
1.2476 1.28742 -4.10568
1.24682 -0.0903168 -2.30665
1.24634 1.62291 -2.53607
1.23633 1.62463 -2.24057
1.24409 1.43307 -2.1525
1.21022 1.63391 -2.28839
1.23672 1.45532 -2.14973
1.212 1.51493 -2.14639
1.1542 1.38111 -2.14564
0.66457 -0.12023 -2.14775
-0.367316 1.0973 -4.15671
-0.421247 1.03173 -4.15607
-0.424277 1.09822 -4.1121
0.431857 1.63249 -2.23278
0.264093 -0.13883 -2.18401
0.264625 -0.133826 -2.18348
0.26414 -0.128912 -2.18449
0.264569 -0.123912 -2.18412
-0.423162 -0.114302 -2.17014
1.24501 1.59973 -3.45708
1.22876 1.62473 -3.39361
1.24639 1.62027 -2.49394
0.934048 -0.140434 -2.50989
0.760687 -0.140392 -2.15829
-0.424169 1.29714 -4.13991
0.105498 1.63474 -2.15377
-0.424294 1.17254 -2.35869
1.2438 -0.0587375 -4.08896
1.24646 -0.079101 -4.02752
1.24513 1.3887 -4.13522
1.22283 1.03485 -4.15563
1.22724 1.62967 -3.61821
1.24733 1.52867 -3.35654
1.17703 1.63437 -3.63497
1.08185 0.655283 -2.14562
0.155745 1.62111 -4.15534
0.138547 1.53602 -4.15688
0.0961896 -0.138333 -4.15698
-0.196183 0.0405905 -4.15702
-0.375364 0.944079 -4.15687
-0.393444 1.19192 -4.15678
-0.398466 0.771865 -4.157
-0.404734 1.11334 -4.15622
-0.413671 0.318347 -4.15451
-0.418938 0.411892 -4.15292
-0.423797 0.756329 -4.14924
-0.424043 0.950361 -4.14874
-0.423586 0.412027 -4.13916
1.24544 1.6311 -4.10876
1.14823 0.156706 -4.157
-0.204372 1.39379 -2.14574
1.24632 1.44486 -4.12208
1.22451 1.38749 -4.15509
1.2101 1.62782 -3.94675
1.18099 1.63377 -3.83623
0.847593 1.61513 -4.15619
-0.175489 -0.139699 -4.12385
-0.424245 0.00788683 -3.26943
-0.42386 1.25736 -2.23459
1.20101 0.0603873 -4.15599
1.24359 1.5255 -4.14196
1.20882 1.06725 -4.15648
1.15837 1.52979 -4.15457
0.890869 1.5515 -4.15664
0.274963 1.5804 -4.15633
-0.424307 0.980175 -2.64911
-0.388653 0.468685 -2.14673
-0.416433 1.55691 -4.15599
-0.423901 1.10902 -4.14612
-0.411932 1.62617 -4.14465
1.17723 0.779252 -2.14567
-0.404505 0.287109 -4.15655
-0.423971 -0.112714 -3.16495
1.13997 0.623247 -2.14565
-0.0541805 1.61304 -2.14746
-0.42365 0.81427 -2.17942
-0.284934 0.0565463 -2.14565
0.682337 -0.134532 -2.14685
0.60296 -0.0909026 -2.1471
1.24436 1.62419 -2.70883
1.24523 -0.117588 -2.7967
1.24644 -0.116498 -3.0403
1.20907 -0.13781 -3.36956
0.910523 -0.140342 -3.23837
1.23555 1.63055 -3.89088
-0.316409 -0.0368286 -2.14582
1.24603 0.28102 -4.14292
1.24233 0.899595 -4.14217
1.22126 -0.135008 -4.14764
1.21188 0.889837 -4.15681
1.18734 1.39681 -4.15661
1.17616 1.43796 -4.1562
-0.423785 0.0844196 -2.19181
-0.424304 0.25008 -3.67974
-0.34582 1.30477 -4.15703
0.696911 -0.140256 -2.18407
0.682612 -0.13957 -2.17899
1.21275 -0.137753 -3.42007
1.24395 1.61799 -3.95261
-0.0107056 -0.140378 -2.52281
1.24409 0.867689 -4.13058
1.2453 0.61232 -4.1564
1.20786 0.105573 -4.15645
1.17611 1.4066 -4.15671
-0.423995 0.454007 -2.1562
-0.423291 0.0845828 -2.18339
1.1242 -0.140152 -3.26562
0.959593 -0.14031 -3.35567
0.822246 -0.14019 -4.09782
0.566805 -0.139778 -4.14985
-0.422193 -0.114474 -3.69348
-0.411153 -0.138777 -3.72933
0.284689 -0.102898 -2.14643
1.23823 0.0862831 -4.15219
-0.161093 -0.140162 -3.1816
0.513788 -0.13978 -4.14318
-0.0719196 -0.140442 -3.80431
-0.200813 -0.140316 -4.11361
1.23408 1.62206 -3.64411
1.18703 1.31541 -2.14561
1.24728 0.995576 -2.15371
1.21618 1.63064 -3.63359
1.15601 -0.140116 -4.14491
-0.295072 1.04483 -4.15704
1.23848 1.52019 -2.15423
-0.356983 0.296359 -2.14563
1.24763 1.3484 -2.78972
1.24732 1.16088 -4.12916
-0.42421 0.826863 -2.24418
-0.30701 0.520179 -2.14562
1.2014 0.0558353 -2.14732
1.21342 0.0854672 -2.14749
1.24714 1.53924 -2.45895
1.24611 -0.0824403 -2.23281
0.914307 -0.140422 -2.82604
1.24721 -0.0668048 -3.65074
1.2403 -0.112745 -3.68078
1.24358 1.30359 -4.15076
1.22963 1.30665 -4.15538
1.24622 0.477997 -4.15243
1.20748 -0.0276902 -4.15017
1.18326 -0.138757 -4.15317
-0.13261 -0.139962 -4.11259
-0.148679 -0.135243 -4.15693
-0.380502 0.35159 -2.14613
-0.391666 0.247525 -2.14571
1.20785 1.4748 -2.14569
1.24765 0.199402 -2.16497
1.22532 -0.126849 -2.15117
1.24301 -0.0474436 -2.15697
1.22712 -0.128044 -2.15712
-0.424309 1.23756 -2.99208
1.16437 1.63457 -2.73521
1.00347 -0.1403 -3.40431
1.24117 -0.126677 -3.46143
1.23897 -0.128617 -3.79017
1.19761 0.465344 -4.15682
1.22412 0.303732 -4.1557
1.24276 0.0798097 -4.15028
1.12322 0.0740037 -4.15674
-0.104518 -0.139429 -4.15533
1.22016 -0.13667 -2.23707
1.2433 1.62846 -2.89022
-0.394307 -0.139758 -3.57971
1.21089 0.843439 -2.14571
1.24714 1.57969 -2.78064
1.24647 1.56451 -2.83894
0.959883 -0.140414 -3.0021
1.2463 -0.127699 -3.33875
0.0955497 -0.139706 -4.10877
1.14781 -0.137814 -3.64423
0.0802365 -0.139524 -4.15623
0.6688 -0.140457 -4.02352
1.19963 -0.140152 -3.916
0.146251 1.63489 -2.33969
1.1547 1.58061 -2.14607
1.24616 1.62334 -2.16473
1.24717 -0.0859772 -2.82932
-0.344659 0.0565166 -4.15694
1.20538 -0.137702 -3.31737
1.2475 -0.044915 -3.35811
1.21711 -0.136823 -3.48601
1.1311 -0.138601 -3.65129
0.205282 -0.140232 -4.09183
0.271096 1.58336 -2.14568
0.23052 1.63363 -2.23871
1.22133 1.51736 -2.14875
1.22826 1.62929 -2.20448
1.21269 1.63149 -2.89064
1.24747 1.57532 -2.95988
0.0342826 -0.118869 -4.1563
1.19124 -0.138523 -3.8109
0.556426 -0.138208 -4.1554
0.637472 -0.13862 -2.1545
-0.279526 -0.140415 -2.90312
1.24722 1.46884 -2.16224
-0.4189 -0.133797 -3.33108
-0.39142 -0.138401 -3.65402
-0.401258 -0.136586 -3.66414
0.369838 -0.14043 -4.15483
1.24159 0.297152 -4.14566
-0.424291 1.08672 -2.32415
-0.150993 -0.136782 -2.16486
-0.161268 -0.139289 -2.20917
0.092355 -0.129546 -2.14663
0.0920571 -0.123547 -2.14659
0.197981 -0.139313 -2.20082
-0.390601 -0.13954 -3.60517
-0.386852 -0.139571 -3.60617
-0.419191 -0.132919 -3.72114
-0.414518 -0.136608 -3.72031
-0.414732 -0.133161 -3.72048
-0.420432 -0.130988 -3.73832
-0.421616 -0.114157 -3.76899
-0.41623 -0.125028 -3.82413
0.257017 -0.140457 -3.50235
1.24019 1.62953 -2.90437
1.24716 -0.0850968 -3.36058
1.23672 -0.116754 -3.66017
-0.424039 0.65765 -2.16536
-0.388497 0.515067 -2.14568
-0.166047 -0.140067 -2.24527
-0.290155 -0.140407 -3.51955
-0.423405 -0.097587 -3.82588
1.24481 1.55 -3.67549
1.13205 1.63417 -3.88476
-0.421998 0.699354 -2.14921
-0.424028 1.02916 -4.12079
-0.42419 1.33029 -4.0766
1.24583 0.65807 -2.1461
1.2468 1.5691 -4.03819
-0.423242 0.634618 -2.1507
0.111161 -0.137578 -2.16987
0.282409 -0.121162 -2.16242
-0.309138 1.28325 -4.15703
1.24746 1.61316 -2.21627
1.24754 0.0702744 -3.7711
1.24569 -0.00412422 -4.09825
1.24303 -0.00697849 -4.11559
1.24069 -0.00633865 -4.12776
1.22956 -0.00568999 -4.14799
-0.424183 1.21772 -4.15554
-0.424235 1.36273 -3.85781
-0.423257 0.940119 -4.156
-0.424291 0.0946139 -2.65694
-0.422085 -0.136527 -3.14139
-0.423406 0.0293667 -2.15882
-0.403626 0.150888 -2.14669
-0.412819 -0.138225 -2.1715
-0.251791 1.63486 -2.15067
-0.367851 -0.140326 -2.45987
-0.356698 -0.140395 -2.78335
-0.36901 -0.138562 -2.16418
-0.329964 -0.138602 -2.15046
-0.212877 -0.140348 -2.31242
-0.101923 -0.134545 -2.14978
0.00285292 -0.136404 -2.14687
0.24334 1.63438 -2.25609
0.155721 -0.140076 -2.25167
1.09237 1.52936 -2.14568
1.17822 1.51774 -2.14567
1.23963 1.39282 -2.14658
0.96154 1.01907 -4.15701
1.10743 1.01962 -4.15682
1.22259 -0.135122 -3.52125
1.12858 -0.139265 -3.80826
1.24579 -0.1102 -3.49954
1.23071 0.765503 -4.15689
1.24546 0.770368 -4.12851
1.24402 0.789708 -4.13974
1.22219 -0.0956669 -4.13969
-0.424186 1.32059 -4.10197
-0.424125 0.00619153 -3.86085
-0.424286 0.0715881 -2.68292
-0.423971 -0.022721 -2.66672
-0.409152 0.250238 -2.14837
-0.421488 -0.128206 -2.60899
-0.4206 -0.136844 -2.51875
-0.423929 -0.0762146 -2.25129
-0.417154 -0.138645 -2.48723
-0.396567 -0.121495 -2.15703
0.0348657 -0.140319 -3.97659
0.775152 1.48453 -2.14574
0.790908 1.63462 -2.18671
1.08477 1.59819 -2.14586
1.19861 1.59515 -2.14758
1.23821 1.15132 -2.14672
1.24621 1.6215 -2.78177
1.21744 -0.138237 -2.35563
0.80265 -0.140194 -4.12753
1.24576 -0.128873 -2.62249
1.24713 -0.124885 -3.82167
1.22447 -0.113438 -3.98885
-0.154777 -0.0931631 -2.14632
0.0286506 -0.13789 -2.17193
0.683436 1.63485 -2.4543
1.16802 -0.136108 -3.64286
1.24334 -0.0880625 -3.61571
-0.424305 1.60688 -3.15601
-0.424171 -0.101846 -2.91837
-0.424253 0.0606803 -2.53664
-0.423529 -0.112006 -2.57076
-0.418784 0.111081 -2.15308
-0.275658 1.6141 -2.14662
-0.387212 0.07813 -2.14725
-0.156823 1.62667 -2.14795
-0.282134 -0.138943 -2.17325
-0.280269 -0.115649 -2.14686
-0.0946462 1.6322 -2.15088
-0.203248 -0.138471 -2.15478
-0.0326397 -0.139454 -2.23223
0.185068 1.62968 -2.14781
0.461242 1.63084 -2.17212
1.2314 1.57816 -2.15202
1.20601 1.11936 -2.14589
1.19269 -0.139675 -2.7375
1.22966 -0.13408 -2.76114
1.24766 0.112838 -3.027
1.24763 1.39364 -3.63764
1.09852 1.22166 -4.15675
1.2465 -0.121855 -3.19254
1.24042 -0.137477 -3.23244
1.23818 1.18093 -4.15337
1.24758 0.761984 -4.07205
-0.421891 0.123649 -2.15878
-0.417871 0.0590005 -2.14872
-0.328959 -0.140286 -3.01012
-0.336044 -0.132108 -2.1475
0.165832 -0.140441 -2.53161
0.370631 1.63469 -2.31075
0.683291 -0.125212 -2.14672
0.509539 1.21067 -4.15701
0.46759 -0.140373 -4.02764
1.23607 0.0763049 -2.15123
1.24421 -0.119373 -2.20964
1.12144 -0.140327 -2.92517
1.24739 -0.0827851 -2.91577
1.20463 1.1688 -4.15593
1.2474 1.21317 -4.14632
1.22933 0.783294 -4.15548
1.23538 0.0919322 -4.15273
1.23129 -0.030743 -4.13718
-0.414424 1.03788 -4.15646
-0.424119 0.391372 -4.11814
-0.424224 0.0220884 -3.78957
-0.42372 -0.078969 -3.70712
-0.424086 -0.115988 -3.32788
-0.373924 -0.139833 -3.05909
-0.423825 -0.062123 -2.56011
-0.423129 0.310823 -2.15399
-0.214749 -0.140439 -3.46241
-0.308753 -0.139269 -2.23335
0.638247 -0.053882 -2.14581
1.24398 1.26998 -2.14809
1.15849 0.00905899 -2.14639
-0.421136 0.376059 -4.14522
-0.423967 0.310434 -4.13035
-0.424045 0.0330878 -4.02211
-0.424231 0.150128 -3.95682
-0.419986 -0.138738 -3.42461
-0.41618 -0.139216 -3.42458
-0.412282 -0.139597 -3.42498
-0.414857 -0.137416 -3.08402
-0.422983 -0.130772 -2.43398
-0.42394 -0.0911785 -3.46751
1.2054 -0.0864033 -4.14778
1.2121 -0.0819057 -4.14146
1.21007 -0.081631 -4.13392
0.937371 -0.10059 -4.15649
-0.0776227 -0.102981 -4.15695
-0.0643649 -0.139551 -4.14461
0.279441 1.46887 -4.15696
-0.409674 1.27079 -4.15687
-0.422146 -0.128814 -3.9888
-0.420309 -0.140081 -3.93278
-0.412799 -0.137141 -3.69859
-0.420662 0.000723869 -2.14861
1.24645 0.222907 -2.1493
1.02006 -0.0702368 -4.15618
1.24645 0.368068 -4.11372
0.818205 -0.139188 -4.15505
0.816056 -0.125032 -4.15699
0.630253 -0.140249 -4.15132
0.327818 -0.133392 -4.15664
1.0463 -0.140391 -3.85199
-0.377095 -0.138216 -4.14083
-0.423741 1.5662 -4.13876
-0.423144 1.62398 -3.85981
-0.421475 -0.126596 -3.69055
-0.349462 -0.140051 -3.57945
0.381315 1.62167 -2.15273
-0.371253 -0.1351 -4.15576
-0.416756 0.332197 -4.15138
-0.338693 1.56652 -4.15676
-0.424256 0.0394658 -3.69678
-0.369388 -0.138733 -3.64726
-0.42215 -0.119794 -3.56751
-0.303091 -0.140054 -3.18532
1.15125 -0.0964325 -4.15434
1.24749 0.596704 -4.14797
1.24712 -0.0945561 -3.93314
-0.410708 -0.134072 -2.16353
-0.423691 1.3164 -2.2066
-0.418146 0.570394 -2.15146
0.050791 -0.139969 -2.40484
0.415538 -0.138991 -2.16768
0.401539 1.63059 -2.15971
0.612135 -0.132826 -2.15071
1.24758 -0.0172693 -2.88839
1.24732 1.5143 -2.71498
0.997908 1.63447 -2.15935
1.24763 0.0112915 -2.46517
1.24517 1.60875 -2.4238
-0.409361 -0.134491 -3.80513
-0.117141 -0.14033 -3.92114
-0.413273 -0.136382 -3.58348
0.206184 -0.140344 -3.86384
-0.3822 -0.135835 -3.3614
-0.399668 -0.13834 -3.29104
-0.420542 -0.140311 -2.9366
1.22313 0.178745 -4.15667
1.23195 0.127246 -4.15227
1.24753 0.242657 -3.99384
-0.424303 0.412857 -2.18772
1.09537 -0.139379 -3.64941
0.402159 -0.13883 -2.16407
0.405827 -0.112772 -2.14569
1.12675 -0.140213 -2.89497
1.21079 -0.140075 -2.94857
0.661033 -0.139798 -2.20305
1.2082 1.63243 -2.67117
1.24273 -0.125371 -2.68725
1.24391 1.61934 -2.63611
1.24726 1.61455 -2.63307
1.06304 1.63478 -2.3375
1.24751 1.41967 -2.5878
1.24757 -0.0340588 -2.54148
1.2229 1.63438 -2.43412
1.23763 1.63101 -2.39906
-0.415699 -0.1343 -4.1347
-0.290482 1.15206 -4.15704
1.24431 0.218164 -4.12766
-0.156918 1.63319 -2.15046
0.62397 -0.140396 -2.28223
1.06986 -0.14031 -2.77719
0.825384 1.63484 -2.46335
0.607084 -0.139606 -2.16002
1.20519 -0.138479 -2.83535
1.20093 1.63322 -2.75436
1.24542 1.56774 -2.72456
1.24738 1.46857 -2.50551
1.24761 -0.0988543 -2.41607
-0.351542 -0.140117 -4.04233
-0.419979 -0.136508 -3.99011
-0.395408 -0.140158 -3.76445
-0.402404 -0.13818 -3.58653
0.992195 1.28407 -4.15689
1.24112 0.346271 -4.14464
1.24711 0.22386 -4.06875
-0.19114 -0.117838 -2.14876
1.24765 1.18107 -3.3511
1.01707 -0.140386 -2.83658
1.22846 -0.139783 -3.00878
1.24485 -0.127503 -2.86187
1.22078 1.6296 -2.65707
1.24277 1.61963 -2.67189
1.24626 1.61203 -2.66153
1.24387 1.62704 -2.61196
1.2443 1.62901 -2.6048
0.928387 1.62943 -2.15187
1.24112 1.63093 -2.49878
1.24753 1.42497 -2.49414
-0.263308 -0.139363 -4.15204
0.0172755 -0.139656 -4.15134
0.0626644 -0.139606 -4.14899
-0.254459 -0.140382 -3.85172
-0.00749219 -0.140446 -3.77682
1.24704 0.0936229 -4.04091
1.24721 -0.0515382 -3.94161
1.24764 0.127657 -3.63033
1.24692 -0.0732968 -3.57768
1.24725 -0.0675194 -3.55402
0.252777 1.62911 -2.20619
0.383268 1.62812 -2.15565
0.723004 1.63481 -2.40799
1.24023 -0.140058 -3.15803
0.647277 1.63255 -2.17899
0.704673 1.61901 -2.14594
0.743804 1.631 -2.16303
1.22974 -0.13995 -2.92833
0.876605 1.63477 -2.27405
0.828229 1.62636 -2.15027
0.836453 1.62878 -2.15276
0.844704 1.62228 -2.14771
0.9015 1.42019 -2.14562
-0.420317 -0.0944781 -4.15444
-0.424112 1.14275 -4.14999
-0.137956 -0.13916 -4.13868
-0.308998 1.59598 -4.15658
-0.251495 -0.140345 -4.06541
-0.370043 -0.140294 -3.83387
-0.0373851 -0.140327 -4.00072
-0.332957 -0.140315 -3.73891
-0.42405 1.51009 -3.72112
-0.417227 1.62466 -2.15101
-0.413874 0.620333 -2.14816
1.2144 1.328 -2.14629
1.24567 1.4002 -2.15365
-0.419366 0.369492 -4.14903
-0.415995 1.17878 -4.15659
-0.185784 -0.140397 -4.10558
-0.423581 -0.109713 -3.94102
-0.401934 -0.135918 -3.79992
-0.424299 1.23997 -2.52673
-0.423565 1.02563 -2.25395
-0.389442 0.486599 -2.14649
-0.0404272 -0.0611272 -2.1461
0.283141 -0.140411 -2.36379
0.259687 -0.130773 -2.15355
1.13624 1.63458 -3.02257
1.2377 1.62958 -3.04249
1.23516 -0.135074 -2.99041
1.22291 1.62989 -2.65076
0.97886 -0.131895 -2.14583
0.986597 -0.137832 -2.15014
-0.424294 0.132138 -3.64018
0.00341013 -0.14009 -4.03987
0.15062 -0.139567 -4.14561
0.0730914 -0.131793 -2.14784
0.0929462 -0.0859591 -2.1461
0.303844 -0.138796 -2.15992
0.373656 -0.129027 -2.14622
0.41595 -0.132962 -2.15137
0.867111 -0.140364 -3.39944
0.427821 -0.12007 -2.14715
0.500016 -0.140294 -2.20342
0.508238 -0.134211 -2.14977
0.507212 -0.116016 -2.14653
1.14734 -0.14038 -3.38143
1.1725 -0.140334 -3.11704
1.24161 1.62613 -2.33902
1.21889 -0.139894 -2.51521
-0.300153 -0.140117 -4.12645
-0.385331 1.6264 -2.14833
1.22451 1.38749 -4.15509
1.24301 -0.0474436 -2.15697
1.22712 -0.128044 -2.15712
-0.412819 -0.138225 -2.1715
1.24421 -0.119373 -2.20964
-0.420309 -0.140081 -3.93278
3 216 400 197
3 2 45 56
3 574 71 21
3 325 471 584
3 271 62 272
3 27 48 9
3 6 587 7
3 544 489 545
3 523 170 386
3 473 379 80
3 245 210 458
3 353 45 420
3 132 218 160
3 56 302 262
3 537 505 88
3 254 70 72
3 455 442 265
3 265 482 455
3 574 21 2
3 291 185 86
3 266 594 450
3 594 104 450
3 172 313 392
3 413 124 461
3 336 167 335
3 231 296 353
3 214 200 68
3 40 36 64
3 388 246 235
3 402 495 494
3 48 8 9
3 216 214 400
3 48 27 26
3 443 313 345
3 217 591 1
3 86 185 98
3 62 31 179
3 82 585 81
3 230 274 275
3 114 111 422
3 56 538 302
3 551 557 512
3 429 486 312
3 65 40 64
3 38 39 42
3 26 27 10
3 10 27 100
3 601 603 604
3 283 6 7
3 204 611 96
3 81 52 597
3 498 20 357
3 3 46 328
3 226 126 445
3 126 465 445
3 2 46 420
3 46 2 328
3 474 604 603
3 423 459 562
3 201 511 89
3 57 607 302
3 121 188 185
3 121 100 188
3 225 306 307
3 104 60 436
3 471 321 166
3 508 487 153
3 509 375 35
3 196 117 287
3 416 66 159
3 317 319 614
3 65 41 43
3 337 155 432
3 516 146 533
3 146 516 4
3 397 76 144
3 220 491 605
3 37 38 370
3 502 476 47
3 47 476 500
3 2 21 328
3 384 56 214
3 514 556 530
3 292 121 151
3 106 77 190
3 190 77 107
3 52 584 602
3 192 11 196
3 234 528 201
3 188 98 185
3 1 591 90
3 105 108 190
3 200 214 216
3 180 225 307
3 25 167 336
3 288 321 14
3 64 36 18
3 118 96 611
3 211 133 416
3 202 364 285
3 70 254 302
3 254 243 302
3 120 115 292
3 524 153 267
3 59 405 204
3 449 447 356
3 147 54 383
3 383 530 147
3 493 419 11
3 432 433 434
3 361 323 377
3 451 189 240
3 535 500 534
3 224 487 223
3 533 476 516
3 70 607 72
3 1 90 89
3 304 305 225
3 73 213 328
3 213 73 74
3 85 430 315
3 309 365 570
3 280 480 521
3 287 117 42
3 87 27 9
3 129 130 122
3 13 329 50
3 158 130 129
3 438 103 130
3 204 67 59
3 9 8 87
3 187 296 444
3 215 590 591
3 466 489 525
3 74 327 213
3 528 511 201
3 71 328 21
3 403 244 530
3 55 403 530
3 393 15 261
3 577 481 566
3 481 542 566
3 100 27 98
3 50 116 13
3 87 98 27
3 86 6 99
3 118 611 127
3 207 307 408
3 432 155 208
3 595 361 299
3 361 595 323
3 263 485 312
3 104 448 259
3 259 450 104
3 474 76 145
3 322 583 360
3 354 233 5
3 5 233 229
3 233 354 229
3 239 600 12
3 232 354 4
3 19 228 355
3 90 590 144
3 590 90 591
3 493 599 601
3 239 451 600
3 169 407 126
3 24 23 156
3 45 2 420
3 30 325 584
3 146 4 58
3 2 56 574
3 416 212 211
3 18 125 469
3 562 110 138
3 434 433 408
3 262 73 71
3 133 582 171
3 416 133 171
3 490 286 195
3 212 342 314
3 372 63 141
3 63 372 370
3 553 554 555
3 179 597 598
3 55 556 588
3 549 324 252
3 554 457 251
3 439 190 107
3 579 480 567
3 480 441 567
3 114 32 111
3 310 409 106
3 260 76 474
3 76 260 144
3 293 572 42
3 12 150 234
3 600 451 220
3 38 42 370
3 594 250 236
3 149 235 246
3 203 202 285
3 251 550 378
3 436 227 210
3 207 433 432
3 572 287 42
3 186 353 573
3 553 555 350
3 225 180 407
3 487 508 488
3 46 573 420
3 306 408 307
3 16 15 393
3 250 594 266
3 54 382 383
3 489 303 545
3 451 491 220
3 488 508 225
3 204 96 67
3 434 337 432
3 262 243 191
3 496 162 163
3 464 428 289
3 327 75 213
3 380 253 191
3 389 405 23
3 480 281 441
3 202 203 358
3 54 498 357
3 101 11 590
3 472 599 492
3 70 302 607
3 333 235 221
3 154 156 23
3 425 461 592
3 461 425 411
3 214 444 44
3 581 41 125
3 363 258 222
3 104 436 105
3 105 436 210
3 561 75 326
3 326 75 327
3 554 558 555
3 42 117 370
3 370 117 63
3 125 18 93
3 24 97 23
3 156 25 50
3 606 402 234
3 234 402 528
3 227 436 437
3 437 436 60
3 400 214 44
3 256 354 232
3 229 283 255
3 173 606 150
3 144 590 397
3 554 553 473
3 154 23 405
3 487 224 153
3 44 444 0
3 522 230 482
3 607 505 72
3 378 252 92
3 262 302 243
3 168 223 334
3 610 571 39
3 479 57 88
3 186 140 137
3 140 186 101
3 342 416 391
3 101 186 11
3 90 510 89
3 450 259 266
3 231 353 381
3 162 510 90
3 539 210 123
3 123 210 564
3 584 471 395
3 302 538 57
3 291 297 165
3 423 562 17
3 6 283 256
3 283 229 256
3 331 363 285
3 33 263 34
3 514 383 382
3 547 548 333
3 604 493 601
3 510 395 89
3 20 244 475
3 98 87 86
3 94 337 434
3 366 312 486
3 505 479 88
3 45 296 187
3 273 299 325
3 240 258 332
3 258 491 332
3 257 60 104
3 472 52 602
3 483 282 543
3 234 201 51
3 354 58 4
3 500 476 533
3 111 138 110
3 111 32 138
3 108 138 32
3 255 283 7
3 536 350 559
3 223 206 224
3 289 183 417
3 81 30 52
3 476 256 232
3 141 375 372
3 54 608 382
3 573 353 420
3 191 243 380
3 608 357 53
3 493 598 492
3 92 35 375
3 561 196 186
3 495 529 588
3 133 287 582
3 14 471 325
3 448 104 105
3 336 168 334
3 152 143 371
3 94 95 155
3 198 197 400
3 55 530 556
3 226 445 435
3 307 207 126
3 248 249 237
3 237 249 258
3 293 42 43
3 12 234 51
3 143 314 371
3 384 478 475
3 162 90 144
3 163 162 144
3 598 597 492
3 474 603 513
3 195 286 142
3 115 120 165
3 151 165 120
3 279 280 521
3 167 49 154
3 266 176 182
3 176 266 259
3 167 156 49
3 156 167 25
3 225 305 306
3 158 170 130
3 287 211 192
3 286 171 298
3 238 541 540
3 151 121 185
3 73 262 191
3 227 209 564
3 564 209 123
3 527 56 384
3 358 203 222
3 416 342 212
3 391 416 159
3 162 496 513
3 464 289 417
3 530 244 147
3 408 306 305
3 94 408 305
3 94 155 337
3 77 409 109
3 109 576 77
3 274 230 522
3 128 97 24
3 284 387 235
3 91 79 338
3 236 250 348
3 593 236 348
3 564 210 227
3 0 197 198
3 84 585 83
3 282 399 239
3 588 529 148
3 529 552 148
3 79 135 294
3 15 16 181
3 28 15 181
3 376 288 270
3 343 486 344
3 358 545 303
3 445 208 435
3 342 391 369
3 75 186 3
3 56 45 187
3 187 444 214
3 210 539 458
3 395 510 584
3 141 251 378
3 367 340 341
3 340 367 311
3 500 535 69
3 92 316 35
3 161 190 439
3 5 515 354
3 315 430 346
3 540 541 236
3 188 100 98
3 268 581 125
3 441 290 578
3 376 320 373
3 208 189 447
3 197 421 216
3 216 421 215
3 76 419 145
3 419 76 397
3 284 247 387
3 274 522 482
3 542 183 289
3 103 102 131
3 207 465 126
3 440 506 520
3 79 91 308
3 568 209 437
3 437 593 568
3 105 190 13
3 186 196 11
3 287 470 171
3 582 287 171
3 11 192 143
3 212 192 211
3 459 575 110
3 110 575 111
3 504 505 537
3 92 375 141
3 378 92 141
3 303 548 202
3 309 295 79
3 310 112 113
3 252 61 92
3 150 174 173
3 312 414 429
3 154 49 156
3 236 238 104
3 102 103 565
3 585 82 83
3 275 274 264
3 336 334 406
3 46 3 573
3 287 192 196
3 93 268 125
3 509 35 316
3 63 251 141
3 384 214 478
3 58 515 22
3 199 88 57
3 199 47 88
3 47 69 88
3 20 475 503
3 60 540 437
3 527 384 546
3 89 51 201
3 279 178 278
3 277 278 178
3 528 494 511
3 247 546 475
3 475 546 384
3 153 524 446
3 164 221 235
3 164 235 149
3 73 253 74
3 74 253 380
3 211 287 133
3 213 75 328
3 408 94 434
3 290 281 280
3 281 290 441
3 119 205 157
3 115 165 297
3 485 263 484
3 400 0 198
3 180 307 126
3 428 456 289
3 226 116 169
3 169 126 226
3 267 153 224
3 222 203 363
3 363 203 285
3 190 161 301
3 143 192 212
3 43 142 293
3 313 159 66
3 252 378 549
3 549 473 324
3 191 253 73
3 214 56 187
3 589 497 22
3 357 518 53
3 79 294 113
3 265 264 274
3 422 423 410
3 521 178 279
3 467 95 544
3 544 545 467
3 304 94 305
3 223 116 50
3 168 206 223
3 310 78 409
3 180 126 407
3 489 546 303
3 592 160 425
3 260 163 144
3 247 475 403
3 449 239 399
3 267 224 524
3 524 224 206
3 288 14 377
3 391 172 369
3 369 172 392
3 255 5 229
3 616 452 609
3 239 449 356
3 422 111 575
3 455 482 463
3 262 71 56
3 231 186 137
3 0 444 296
3 1 89 608
3 89 511 608
3 507 13 190
3 540 60 257
3 101 590 140
3 345 66 367
3 112 32 114
3 568 577 209
3 274 482 265
3 612 613 615
3 256 193 385
3 592 340 311
3 316 92 241
3 151 120 292
3 240 208 155
3 106 190 108
3 467 545 358
3 328 71 73
3 464 417 181
3 413 34 263
3 6 256 99
3 568 593 348
3 542 289 569
3 569 567 542
3 210 245 105
3 105 245 108
3 138 108 245
3 164 248 221
3 30 81 273
3 118 67 96
3 117 196 251
3 63 117 251
3 350 536 477
3 535 534 589
3 457 550 251
3 143 493 11
3 493 143 62
3 513 260 474
3 296 140 0
3 581 268 195
3 186 75 561
3 16 393 414
3 53 518 68
3 595 299 271
3 388 235 387
3 238 257 104
3 202 358 303
3 162 513 510
3 108 32 310
3 260 513 163
3 546 67 527
3 67 546 390
3 540 236 593
3 340 592 461
3 353 186 381
3 297 127 115
3 127 297 118
3 487 116 223
3 31 62 271
3 81 31 273
3 394 152 443
3 277 276 278
3 276 279 278
3 84 83 300
3 300 83 82
3 395 51 89
3 339 578 290
3 290 412 339
3 155 95 359
3 359 95 467
3 282 239 12
3 28 282 51
3 282 12 51
3 312 464 414
3 428 230 456
3 390 466 335
3 269 377 322
3 116 226 448
3 374 152 394
3 366 340 124
3 177 412 279
3 532 497 531
3 497 532 146
3 69 47 500
3 543 183 348
3 363 331 237
3 82 81 300
3 185 291 151
3 291 165 151
3 314 369 371
3 371 369 392
3 66 345 313
3 314 342 369
3 507 190 301
3 113 78 310
3 135 78 294
3 78 113 294
3 338 79 295
3 322 377 323
3 453 91 338
3 166 321 317
3 318 166 317
3 427 484 33
3 236 541 238
3 263 33 484
3 140 296 137
3 296 231 137
3 178 569 442
3 348 483 543
3 445 465 208
3 199 517 47
3 20 147 244
3 19 355 53
3 50 25 334
3 408 433 207
3 386 157 205
3 404 386 205
3 118 297 67
3 286 298 293
3 142 286 293
3 14 361 377
3 370 372 316
3 143 152 360
3 569 289 456
3 354 515 58
3 229 354 256
3 248 331 221
3 405 389 204
3 544 525 489
3 364 331 285
3 95 94 304
3 424 410 423
3 310 32 112
3 108 310 106
3 425 410 424
3 106 409 77
3 309 453 295
3 313 172 159
3 412 290 280
3 159 172 391
3 286 490 171
3 212 314 143
3 280 279 412
3 340 366 341
3 360 152 374
3 317 321 319
3 443 152 371
3 544 225 525
3 92 61 324
3 61 252 324
3 273 325 30
3 398 329 301
3 329 13 301
3 353 296 45
3 328 75 3
3 556 495 588
3 55 588 148
3 401 68 200
3 472 602 513
3 128 330 386
3 156 330 24
3 330 128 24
3 330 50 329
3 156 50 330
3 404 128 386
3 404 205 389
3 128 404 389
3 331 248 237
3 235 333 284
3 331 333 221
3 335 168 336
3 50 334 223
3 240 155 359
3 563 79 308
3 264 442 462
3 104 594 236
3 341 368 415
3 368 341 366
3 415 367 341
3 344 346 430
3 325 299 361
3 377 270 288
3 78 109 409
3 550 457 554
3 258 240 358
3 402 494 528
3 552 606 173
3 74 352 327
3 242 327 352
3 562 138 245
3 110 562 459
3 532 533 146
3 548 247 284
3 53 68 401
3 357 20 503
3 518 357 503
3 239 356 175
3 447 259 448
3 258 363 237
3 222 258 358
3 519 29 566
3 370 316 37
3 376 373 288
3 374 394 320
3 325 361 14
3 485 484 428
3 403 387 247
3 36 365 18
3 93 18 365
3 132 365 218
3 160 218 365
3 79 160 365
3 365 309 79
3 276 177 279
3 112 410 113
3 366 139 312
3 345 367 415
3 343 344 368
3 368 366 343
3 124 139 366
3 372 375 509
3 374 320 376
3 269 322 376
3 270 269 376
3 269 270 377
3 31 271 299
3 31 299 273
3 524 206 446
3 603 472 513
3 74 380 352
3 381 186 231
3 1 608 355
3 8 587 87
3 587 86 87
3 0 400 44
3 382 511 494
3 85 443 345
3 67 297 385
3 385 297 291
3 291 86 385
3 86 99 385
3 385 99 256
3 386 170 157
3 173 246 388
3 25 406 334
3 97 128 389
3 205 204 389
3 23 97 389
3 167 390 335
3 194 67 390
3 390 167 194
3 28 417 282
3 412 431 461
3 311 160 592
3 318 261 166
3 471 14 321
3 51 395 28
3 166 261 395
3 395 261 15
3 395 15 28
3 241 324 396
3 324 241 92
3 125 41 469
3 326 351 554
3 379 473 553
3 193 56 527
3 385 193 527
3 161 398 301
3 182 399 266
3 531 589 532
3 500 499 534
3 397 590 419
3 590 11 419
3 55 148 403
3 403 148 387
3 25 336 406
3 405 59 67
3 67 194 405
3 167 154 405
3 167 405 194
3 447 448 208
3 424 578 339
3 410 79 113
3 566 542 519
3 160 79 425
3 112 114 410
3 576 109 563
3 78 135 109
3 135 563 109
3 425 79 410
3 521 579 567
3 452 539 609
3 454 570 365
3 411 339 412
3 431 413 461
3 413 139 124
3 413 312 139
3 263 312 413
3 427 230 428
3 482 230 426
3 417 28 181
3 320 418 373
3 320 288 418
3 418 288 373
3 340 461 124
3 537 88 69
3 140 421 0
3 0 421 197
3 240 332 451
3 332 491 451
3 114 422 410
3 540 257 238
3 411 424 339
3 424 423 17
3 411 425 424
3 521 480 579
3 507 301 13
3 426 230 427
3 482 426 463
3 430 345 415
3 430 85 345
3 430 415 368
3 344 430 368
3 547 364 202
3 382 494 514
3 402 606 495
3 453 338 295
3 431 33 34
3 413 431 34
3 426 33 431
3 8 48 587
3 6 86 587
3 448 105 13
3 356 447 175
3 523 438 130
3 130 103 122
3 122 103 131
3 227 437 209
3 438 161 103
3 438 398 161
3 398 438 329
3 134 439 308
3 249 491 258
3 461 411 412
3 265 442 264
3 442 277 178
3 276 277 442
3 276 442 177
3 347 394 443
3 443 371 392
3 392 313 443
3 608 54 357
3 407 488 225
3 175 447 189
3 448 226 435
3 13 116 448
3 448 435 208
3 259 449 176
3 182 176 399
3 399 176 449
3 259 447 449
3 175 451 239
3 175 189 451
3 102 122 131
3 103 161 460
3 308 453 134
3 91 453 308
3 178 521 569
3 266 399 483
3 456 275 462
3 36 454 365
3 455 177 442
3 275 456 230
3 244 403 475
3 293 298 572
3 64 18 469
3 134 460 439
3 161 439 460
3 275 264 462
3 463 426 431
3 463 431 412
3 463 412 177
3 455 463 177
3 414 464 16
3 181 16 464
3 343 366 486
3 62 596 272
3 523 130 170
3 329 523 330
3 465 432 208
3 432 465 207
3 466 168 335
3 168 466 206
3 446 206 466
3 487 488 169
3 240 359 467
3 240 467 358
3 470 298 171
3 468 443 85
3 347 443 468
3 65 64 469
3 41 65 469
3 150 600 174
3 471 166 395
3 526 376 322
3 550 473 549
3 549 378 550
3 473 80 396
3 324 473 396
3 474 145 604
3 604 419 493
3 552 387 148
3 193 256 476
3 555 558 350
3 20 498 147
3 558 554 560
3 533 532 499
3 500 533 499
3 54 147 498
3 475 478 503
3 280 281 480
3 437 540 593
3 33 426 427
3 250 266 483
3 483 348 250
3 483 399 282
3 428 484 427
3 464 485 428
3 485 464 312
3 261 318 486
3 486 393 261
3 393 486 414
3 429 414 486
3 116 487 169
3 488 407 169
3 466 390 489
3 490 195 268
3 171 490 416
3 66 416 490
3 66 490 367
3 367 490 311
3 311 490 160
3 160 490 132
3 93 490 268
3 470 287 572
3 599 493 492
3 546 247 303
3 548 303 247
3 492 52 472
3 62 179 493
3 494 556 514
3 219 22 515
3 4 516 232
3 557 501 512
3 58 22 497
3 146 58 497
3 535 589 22
3 504 537 22
3 502 193 476
3 538 56 193
3 71 574 56
3 17 506 440
3 505 57 479
3 72 505 504
3 563 308 576
3 183 481 568
3 481 577 568
3 565 103 460
3 525 225 508
3 376 526 374
3 316 372 509
3 331 547 333
3 202 548 547
3 495 606 529
3 496 163 513
3 383 514 530
3 5 255 515
3 255 219 515
3 232 516 476
3 350 551 396
3 551 350 557
3 512 362 551
3 537 69 22
3 502 47 517
3 68 518 214
3 478 214 518
3 503 478 518
3 563 135 79
3 576 107 77
3 542 481 183
3 523 386 330
3 438 523 329
3 153 525 508
3 525 153 446
3 446 466 525
3 600 150 12
3 360 526 322
3 360 374 526
3 527 67 385
3 585 300 179
3 219 255 586
3 7 586 255
3 559 350 558
3 536 559 560
3 560 559 558
3 535 22 69
3 499 532 589
3 499 589 534
3 502 538 193
3 538 199 57
3 199 538 517
3 538 502 517
3 539 184 609
3 123 184 539
3 184 123 577
3 519 542 441
3 417 543 282
3 417 183 543
3 544 304 225
3 95 304 544
3 390 546 489
3 241 396 362
3 547 331 364
3 284 333 548
3 396 551 362
3 173 388 552
3 388 387 552
3 553 80 379
3 553 396 80
3 553 350 396
3 554 349 326
3 349 554 251
3 554 473 550
3 495 556 494
3 589 531 497
3 251 561 349
3 561 326 349
3 561 251 196
3 562 245 458
3 562 458 506
3 562 506 17
3 134 565 460
3 134 136 565
3 136 102 565
3 348 183 568
3 441 542 567
3 462 442 569
3 569 456 462
3 567 569 521
3 453 309 570
3 454 453 570
3 271 272 595
3 39 571 42
3 298 470 572
3 150 606 234
3 186 573 3
3 423 575 459
3 423 422 575
3 576 439 107
3 576 308 439
3 209 577 123
3 29 577 566
3 440 441 578
3 440 578 17
3 17 578 424
3 365 580 93
3 490 93 580
3 580 132 490
3 132 580 365
3 142 43 581
3 142 581 195
3 41 581 43
3 143 583 62
3 322 323 583
3 360 583 143
3 272 596 595
3 595 596 323
3 584 52 30
3 585 31 81
3 585 84 300
3 48 26 586
3 586 100 22
3 10 586 26
3 586 10 100
3 586 22 219
3 7 587 586
3 586 587 48
3 421 590 215
3 140 590 421
3 596 62 583
3 583 323 596
3 179 31 585
3 300 81 597
3 52 492 597
3 300 597 179
3 598 493 179
3 220 174 600
3 510 602 584
3 602 510 513
3 145 419 604
3 601 599 603
3 603 599 472
3 605 491 249
3 605 249 248
3 248 164 605
3 605 164 149
3 246 605 149
3 246 173 605
3 174 605 173
3 220 605 174
3 552 529 606
3 57 505 607
3 355 608 53
3 382 608 511
